<svg xmlns="http://www.w3.org/2000/svg" viewBox="0 0 64 64"><defs><style>.cls-1{fill:#37474f;}.cls-2{fill:#cfd8dd;}.cls-3{opacity:0.1;}.cls-4{fill:#fff;}</style></defs><title>Vinyl</title><g id="Layer_2" data-name="Layer 2"><g id="Layer_1-2" data-name="Layer 1"><path class="cls-1" d="M46.31,3.37A32,32,0,1,0,32,64,32,32,0,0,0,46.31,3.37ZM32,34a1.92,1.92,0,0,1-.89-.21,2,2,0,0,1,.09-3.62A2,2,0,0,1,32,30a1.92,1.92,0,0,1,.89.21,2,2,0,0,1-.09,3.62A2,2,0,0,1,32,34Z"/><path class="cls-2" d="M32,22A10,10,0,1,0,42,32,10,10,0,0,0,32,22Zm0,12a2,2,0,1,1,2-2A2,2,0,0,1,32,34Z"/><g class="cls-3"><path class="cls-4" d="M21.87,1.64,31.36,30.1a1.92,1.92,0,0,0-.78.48,2,2,0,0,0-.45.69L2.2,20.34A32.06,32.06,0,0,1,21.87,1.64Z"/><path class="cls-4" d="M61.8,43.66a32.06,32.06,0,0,1-19.68,18.7L32.64,33.9a1.92,1.92,0,0,0,.78-.48,2,2,0,0,0,.45-.69Z"/></g></g></g></svg>